<svg xmlns="http://www.w3.org/2000/svg" xmlns:xlink="http://www.w3.org/1999/xlink" style="width: 0; height: 0; visibility: hidden; position: absolute;" aria-hidden="true"><symbol  id='icon-arrow-left'>
      <path d="M10.273 5.009a1.112 1.112 0 0 1 1.587 0 1.12 1.12 0 0 1 0 1.571l-8.047 8.047h26.554c.619 0 1.127.492 1.127 1.111s-.508 1.127-1.127 1.127H3.813l8.047 8.032c.429.444.429 1.159 0 1.587a1.112 1.112 0 0 1-1.587 0L.321 16.532a1.12 1.12 0 0 1 0-1.571l9.952-9.952z"></path>
    </symbol><symbol  id='icon-arrow-right'>
      <path d="M21.205 5.007a1.112 1.112 0 0 0-1.587 0 1.12 1.12 0 0 0 0 1.571l8.047 8.047H1.111A1.106 1.106 0 0 0 0 15.737c0 .619.492 1.127 1.111 1.127h26.554l-8.047 8.032c-.429.444-.429 1.159 0 1.587a1.112 1.112 0 0 0 1.587 0l9.952-9.952a1.093 1.093 0 0 0 0-1.571l-9.952-9.953z"></path>
    </symbol><symbol  id='icon-customer'>
      <path d="M495.984 252.588c-17.119-14.109-44.177-15.319-61.936 3.74l-44.087 47.327c-5.7-18.319-22.809-31.658-42.977-31.658h-78.675c-5.97 0-7.969-2.28-18.339-10.269-39.538-34.468-98.924-34.358-138.342.33L82.71 287.516c-12.999-6.88-28.178-7.05-41.248-.52L8.294 303.575c-7.41 3.71-10.409 12.719-6.71 20.129l89.995 179.989c3.71 7.41 12.719 10.409 20.129 6.71l33.168-16.589c16.349-8.169 25.448-24.849 24.858-41.827h177.249c32.868 0 64.276-15.699 83.995-41.997l72.006-96.014c13.969-18.61 11.759-45.899-7-61.388zM131.456 466.985l-19.749 9.879-76.585-153.16 19.759-9.879c7.41-3.7 16.409-.71 20.119 6.71l63.166 126.332c3.7 7.409.7 16.408-6.71 20.118zm347.529-171.009L406.98 391.99c-14.089 18.789-36.518 29.998-59.996 29.998H159.265l-56.207-112.423 28.388-24.988c28.248-24.849 70.846-24.849 99.094 0 16.639 14.649 26.988 17.419 37.768 17.419h78.675c8.27 0 14.999 6.73 14.999 14.999s-6.73 14.999-14.999 14.999h-76.605c-8.28 0-14.999 6.72-14.999 14.999s6.72 14.999 14.999 14.999h86.655c12.449 0 24.449-5.22 32.928-14.329l66.036-70.886c6.04-6.48 15.299-5.94 20.979-.97 5.939 5.199 6.58 14.089 2.009 20.169zm-163.6-193.609c10.269-10.769 16.599-25.328 16.599-41.358 0-33.018-26.678-60.996-59.996-60.996-33.068 0-60.996 27.928-60.996 60.996 0 15.539 6.09 30.208 17.149 41.478-27.428 15.379-47.147 44.897-47.147 79.515v14.999c0 8.279 6.72 14.999 14.999 14.999h150.991c8.279 0 14.999-6.72 14.999-14.999v-14.999c-.001-33.938-18.668-63.916-46.598-79.635zm-43.397-72.355c16.259 0 29.998 14.199 29.998 30.998 0 16.539-13.459 29.998-29.998 29.998-16.799 0-30.998-13.739-30.998-29.998 0-16.509 14.489-30.998 30.998-30.998zm-60.996 151.99c0-33.068 27.928-60.996 60.996-60.996 33.078 0 59.996 27.358 59.996 60.996H210.992z"></path>
    </symbol><symbol  id='icon-menu-btn'>
      <path d="M147.421 0C66.133 0 0 66.133 0 147.421c0 40.968 17.259 80.425 47.351 108.255a6 6 0 0 0 8.147-8.81C27.854 221.3 12 185.054 12 147.421 12 72.75 72.75 12 147.421 12s135.421 60.75 135.421 135.421-60.75 135.421-135.421 135.421a6 6 0 0 0 0 12c81.289 0 147.421-66.133 147.421-147.421S228.71 0 147.421 0z"></path><path d="M84.185 90.185h126.473a6 6 0 0 0 0-12H84.185a6 6 0 0 0 0 12zm0 63.236h126.473a6 6 0 0 0 0-12H84.185a6 6 0 0 0 0 12zm132.473 57.237a6 6 0 0 0-6-6H84.185a6 6 0 0 0 0 12h126.473a6 6 0 0 0 6-6z"></path>
    </symbol><symbol  id='icon-support'>
      <path d="M271.786 289.626v-7.36c2.08-1.68 4.08-3.52 6-5.44a109.36 109.36 0 0 0 27.68-60.96 53.762 53.762 0 0 0 34.72-20.64c11.6-16.4 12.64-40 2.96-69.6a8.002 8.002 0 0 0-3.2-4.16l-4.4-2.96a108.478 108.478 0 0 0-25.92-73.04c-21.52-24.24-54.56-36.48-98.32-36.64-43.68 0-76.8 12.4-98.32 36.32a108.478 108.478 0 0 0-25.92 73.04l-4.4 2.96a8.002 8.002 0 0 0-3.2 4.16c-9.68 29.76-8.64 53.2 2.96 69.6a53.918 53.918 0 0 0 34.72 20.88 109.44 109.44 0 0 0 27.76 61.04 78.037 78.037 0 0 0 6 5.44v7.36c-30.64 5.92-152.96 34.64-150.88 116.24a8 8 0 0 0 8 8h406.64a8 8 0 0 0 8-8c2.08-81.6-120.24-110.32-150.88-116.24zm-159.44-91.68a34.72 34.72 0 0 1-16.96-12.4l.4.08c-8-11.68-8.72-29.36-1.6-52.72l5.84-3.92a8 8 0 0 0 3.52-7.44 94.558 94.558 0 0 1 21.76-65.84c18.08-20.48 47.12-30.72 86-30.88 38.88-.16 67.92 10.4 86.32 30.88a94.558 94.558 0 0 1 21.76 65.84 8 8 0 0 0 3.52 7.44l5.84 3.92c7.12 23.28 6.64 41.04-1.6 52.72a34.886 34.886 0 0 1-17.04 12.4 53.277 53.277 0 0 0 13.04-40 37.441 37.441 0 0 0-12.88-22.4c-3.44-80-59.52-88.96-83.68-88.96-5.114-.015-10.222.36-15.28 1.12a100.705 100.705 0 0 0-15.28-1.12c-24 0-80 8.8-83.68 88.96a37.44 37.44 0 0 0-13.04 22.32 53.2 53.2 0 0 0 13.04 40zm182-65.6a164.805 164.805 0 0 1-95.6-24 8 8 0 0 0-10.4 1.04c-16 17.2-45.2 21.2-59.28 22.08 4.32-56.56 38.56-68.88 67.36-68.88a77.331 77.331 0 0 1 13.68 1.12 7.982 7.982 0 0 0 3.2 0 77.71 77.71 0 0 1 13.68-1.12c28.56 0 62.96 12.64 66.96 69.68l.4.08zm-162.48 67.12l.32.08a7.997 7.997 0 0 0-2-5.36c-10.96-12.56-16-24-14.64-33.44a21.2 21.2 0 0 1 7.28-13.52c10.56 0 48-2 72-22.72a180.395 180.395 0 0 0 88.8 24c5.36 0 10.8 0 16.48-.88a21.118 21.118 0 0 1 7.2 13.12c1.36 9.28-3.68 20.88-14.64 33.44a7.997 7.997 0 0 0-2 5.36v4.16l-46.56 24.96c-9.24-8.748-23.823-8.349-32.571.891-8.748 9.24-8.349 23.823.891 32.571 9.24 8.748 23.823 8.349 32.571-.891a23.039 23.039 0 0 0 6.309-15.851c.036-.72.036-1.44 0-2.16l36.72-19.68a88.007 88.007 0 0 1-21.44 42.24 71.28 71.28 0 0 1-53.04 19.84h-4a71.44 71.44 0 0 1-52.96-19.76c-25.28-25.2-24.72-66-24.72-66.4zm103.44 45.92a7.12 7.12 0 1 1-14.24 0 7.12 7.12 0 0 1 14.24 0zm-32 152H16.266c6.32-60.08 104-85.2 134.56-91.68v14.32c0 18.16 22.08 32 52.48 34.32v43.04zm-36.48-77.36v-27.6a96.721 96.721 0 0 0 42.48 8.96h4a96.721 96.721 0 0 0 42.48-8.96v27.6c0 7.6-17.36 18.56-44.48 18.56s-44.48-10.96-44.48-18.56zm52.48 77.6v-43.36c30.4-2.08 52.48-16 52.48-34.32v-14c30.8 6.4 128 31.52 134.56 91.68h-187.04z"></path>
    </symbol></svg>